<svg width="63" height="16" viewBox="0 0 63 16" fill="none" xmlns="http://www.w3.org/2000/svg">
<path fill-rule="evenodd" clip-rule="evenodd" d="M61.0561 10.3037C61.0561 9.51181 61.4354 9.01687 62.1308 8.86389V8.86306C62.1308 8.20641 62.1308 7.54078 62.1398 6.88414C62.0636 6.84348 61.9792 6.80771 61.8948 6.77193C61.699 6.68893 61.503 6.60582 61.4083 6.46119C61.2187 6.14623 61.0832 5.74128 61.0742 5.37233C61.0471 4.22497 61.0505 3.07762 61.0539 1.93026C61.055 1.54781 61.0561 1.16535 61.0561 0.782902C61.0471 0.116985 60.9207 0 60.2524 0H58.3108H57.4077V2.21372H58.5275C58.5275 2.59789 58.5296 2.97698 58.5316 3.35235L58.5316 3.35388C58.5356 4.09465 58.5395 4.82096 58.5275 5.54331L58.5263 5.59939C58.5083 6.44448 58.4904 7.28453 59.259 7.89201C58.672 8.39595 58.4914 8.99888 58.5185 9.70079C58.5438 10.3307 58.5381 10.9606 58.5324 11.5905C58.53 11.8605 58.5275 12.1305 58.5275 12.4005V13.7953H57.4077V16H60.1801C60.9748 16 61.0561 15.919 61.0561 15.1181C61.0561 14.5858 61.0551 14.0526 61.0541 13.519V13.518V13.517V13.516V13.515V13.5145V13.5139V13.5134V13.5129C61.0521 12.4427 61.0501 11.3712 61.0561 10.3037ZM1.09271 5.21934C1.10174 6.05623 0.83985 6.68615 0 6.97412V8.77389C0.83985 9.11585 1.1198 9.74577 1.09271 10.6277C1.05658 11.8806 1.0667 13.1277 1.07682 14.3737C1.07935 14.6849 1.08187 14.996 1.08368 15.3071C1.08368 15.856 1.22817 15.991 1.77904 16H3.13363H4.69593V13.8133C4.35908 13.8053 4.04359 13.7902 3.71152 13.7743H3.71151H3.71149H3.71147H3.71144L3.58516 13.7683C3.58516 13.4003 3.58367 13.036 3.58218 12.6747V12.6746V12.6746C3.57851 11.7811 3.5749 10.9051 3.59419 10.0337C3.62129 9.23284 3.54904 8.47693 2.90787 7.919C3.55807 7.1001 3.59419 6.99212 3.59419 5.95725V2.71765C3.59419 2.61956 3.60082 2.52478 3.60805 2.4213L3.60805 2.4213L3.60805 2.42128L3.60805 2.42126L3.60805 2.42123L3.60805 2.42123C3.61276 2.35385 3.61773 2.28278 3.62129 2.20471H4.6869V0.00898883H1.85128C1.21011 0.00898883 1.08368 0.134973 1.08368 0.773893C1.08368 1.14525 1.08311 1.51605 1.08255 1.88656V1.88666V1.88675V1.88684V1.88694V1.88695V1.88695V1.88696V1.88697C1.08085 2.99776 1.07916 4.10602 1.09271 5.21934ZM42.9136 13.0124C42.9136 13.2 42.9142 13.3836 42.9147 13.5641C42.9164 14.093 42.918 14.5946 42.9045 15.0911C42.9045 15.1991 42.751 15.3791 42.6426 15.3971C42.3085 15.4601 41.9563 15.5051 41.6132 15.4961C40.6017 15.4601 40.0418 14.9201 39.9425 13.9213C39.9335 13.8223 39.9244 13.7233 39.9064 13.5973C39.8843 13.613 39.8644 13.6254 39.8468 13.6365C39.8138 13.657 39.7885 13.6729 39.7709 13.6963C38.3982 15.91 34.6867 16.3599 32.4832 14.0382C30.37 11.8065 30.4152 7.81101 32.5825 5.64228C34.5151 3.70753 37.5494 3.8875 39.2381 6.02924C39.2923 6.09223 39.3465 6.15522 39.4729 6.3172V3.25758V0.260957H42.2634V0.80089V12.0405C42.2724 12.4904 42.2905 12.9314 42.9136 13.0124ZM39.4729 10.0967C39.7438 8.57592 39.0394 7.57704 37.739 6.93812C36.7818 6.47018 35.8606 6.59617 35.0389 7.25308C33.4946 8.47693 33.3953 11.1316 34.8582 12.4454C35.7523 13.2463 36.8179 13.4533 37.9196 12.9494C38.9401 12.4904 39.6445 11.7525 39.4819 10.5017C39.4684 10.4004 39.4701 10.2992 39.4718 10.198C39.4723 10.1642 39.4729 10.1305 39.4729 10.0967ZM47.4018 10.8256H55.7551C56.1615 8.32395 54.9966 5.34532 51.7636 4.49042C48.63 3.66253 45.5776 5.25533 44.6745 8.16197C43.7444 11.1406 45.1983 14.2002 48.0249 15.2171C50.7883 16.216 54.2199 15.0371 55.1862 12.7154L55.1861 12.7154C54.4636 12.5084 53.7413 12.3014 53.0189 12.1215C52.9376 12.1035 52.775 12.2025 52.7208 12.2925C52.3325 12.9044 51.7546 13.2373 51.0863 13.4173C49.244 13.9212 47.4199 12.6524 47.4018 10.8256ZM50.0929 6.3172C51.6643 6.3082 52.9376 7.49605 52.9195 8.98986H47.3566C47.3205 7.55904 48.5848 6.33519 50.0929 6.3172ZM23.9493 15.5681C20.6622 15.5771 18.242 13.2014 18.2329 9.96179C18.2239 6.6952 20.6351 4.2925 23.9313 4.2925C27.2365 4.2925 29.6477 6.6772 29.6477 9.94379C29.6477 13.2014 27.2546 15.5591 23.9493 15.5681ZM21.1143 10.3088L21.1143 10.3089C21.1425 10.5374 21.1706 10.7646 21.2311 10.9877C21.5743 12.3195 22.6309 13.1834 23.9042 13.2014C25.1956 13.2194 26.2522 12.4005 26.6405 11.0687C26.9294 10.0788 26.8753 9.1069 26.3876 8.18901C25.9 7.27112 25.1504 6.73119 24.0938 6.6862C23.0192 6.6322 22.2155 7.11814 21.6375 8.00003C21.2401 8.58496 21.0957 9.25988 21.0686 9.97079C21.0864 10.0836 21.1004 10.1963 21.1143 10.3088ZM16.1375 7.37133C16.4496 7.27554 16.7647 7.17883 17.086 7.08212C15.9391 4.81441 13.1938 3.77054 10.4665 4.52644C7.87471 5.22836 6.24919 7.57706 6.42981 10.3487C6.61042 13.0214 8.60619 15.1721 11.2431 15.5141C13.8801 15.856 16.4177 14.6682 17.095 12.7424L14.44 11.9325C13.7446 12.9494 12.7964 13.3723 11.6224 13.1474C10.3852 12.9044 9.68084 12.0315 9.41895 10.8527C9.29252 10.2947 9.30155 9.6828 9.39186 9.11587C9.5815 7.95502 10.2407 7.09112 11.4237 6.77616C12.5616 6.4702 13.5369 6.76716 14.2684 7.73004C14.3226 7.80203 14.4761 7.87403 14.5574 7.84703C15.086 7.6941 15.6075 7.53404 16.1375 7.37133Z" fill="white"/>
</svg>
