<svg width="148" height="16" viewBox="0 0 148 16" fill="none" xmlns="http://www.w3.org/2000/svg">
<path fill-rule="evenodd" clip-rule="evenodd" d="M33.7387 8.12122C33.7387 3.34546 36.9378 0 41.5028 0H41.835C44.7019 0 46.9044 1.4303 48.0856 3.50303C48.1594 3.63637 48.1471 3.74546 48.0118 3.80606L46.0431 4.76364C45.9077 4.82425 45.7355 4.82425 45.6493 4.66667C44.8249 3.26061 43.5822 2.50909 41.7488 2.50909H41.4166C38.5497 2.50909 36.5687 4.75152 36.5687 8.01213C36.5687 11.2849 38.5128 13.4788 41.4166 13.4788H41.7488C43.6314 13.4788 44.7265 12.8485 45.5632 11.8909C45.674 11.7697 45.797 11.7455 45.9323 11.8182L47.9503 12.7879C48.0241 12.8364 48.061 12.8849 48.061 12.9455C48.061 12.9969 48.0433 13.0308 48.0154 13.0844L47.9995 13.1152C46.7567 14.897 44.5173 16 41.7981 16H41.4658C36.8148 15.9879 33.7387 12.8485 33.7387 8.12122ZM27.3035 15.7091H29.7398C29.8875 15.7091 29.9859 15.6121 29.9244 15.4545C28.5094 10.5454 26.393 5.11511 24.2028 0.56965C24.1044 0.351468 23.9814 0.278741 23.7722 0.278741H20.5976C20.3885 0.278741 20.2654 0.36359 20.167 0.56965C18.0014 5.12723 15.8481 10.5454 14.4454 15.4666C14.3962 15.6242 14.4824 15.7091 14.6423 15.7091H16.9925C17.1278 15.7091 17.2139 15.6484 17.2508 15.5151C17.5708 14.2545 17.9645 12.9212 18.4075 11.5757H25.8885C26.3315 12.9212 26.7252 14.2545 27.0452 15.5151C27.0821 15.6484 27.1682 15.7091 27.3035 15.7091ZM22.4064 2.71511C23.3292 4.73935 24.2397 6.95753 25.0518 9.18784H19.2195C20.0316 6.96966 20.9545 4.73935 21.8773 2.71511H22.4064ZM11.7138 2.53334V0.509092C11.7138 0.375759 11.6277 0.29091 11.4923 0.29091H0.221479C0.0861308 0.29091 0 0.375759 0 0.509092V15.4788C0 15.6121 0.0861308 15.697 0.221479 15.697H2.43627C2.57162 15.697 2.65775 15.6121 2.65775 15.4788V9.35758H9.94196C10.0773 9.35758 10.1634 9.27273 10.1634 9.1394V7.11516C10.1634 6.98182 10.0773 6.89698 9.94196 6.89698H2.65775V2.75152H11.4923C11.6277 2.75152 11.7138 2.66667 11.7138 2.53334ZM65.8902 15.4788V13.4546C65.8902 13.3212 65.7918 13.2364 65.6564 13.2364H56.3543V9.20001H63.7492C63.8846 9.20001 63.9707 9.11516 63.9707 8.98182V6.98182C63.9707 6.84849 63.8846 6.76364 63.7492 6.76364H56.3543V2.75152H65.4596C65.5949 2.75152 65.681 2.66667 65.681 2.53334V0.509092C65.681 0.375759 65.5949 0.29091 65.4596 0.29091H53.9303C53.795 0.29091 53.7089 0.375759 53.7089 0.509092V15.4788C53.7089 15.6121 53.795 15.697 53.9303 15.697H65.6687C65.8041 15.697 65.8902 15.6121 65.8902 15.4788ZM86.0938 11.4788C86.0938 14.1818 83.9898 15.7091 80.2861 15.7091H72.5959C72.4605 15.7091 72.3744 15.6243 72.3744 15.4909V0.509092C72.3744 0.375759 72.4605 0.29091 72.5959 0.29091H79.6094C83.2146 0.29091 85.1833 1.69697 85.1833 4.27879C85.1833 5.97576 84.3097 7.09091 82.5502 7.60001C85.0233 8.12122 86.0938 9.57576 86.0938 11.4788ZM79.5479 2.69091H75.0322V6.83637H79.5479C81.5658 6.83637 82.5009 6.18182 82.5009 4.76364C82.5009 3.34546 81.5658 2.69091 79.5479 2.69091ZM83.3745 11.2485C83.3745 9.81819 82.4148 9.16364 80.2984 9.16364H75.0322V13.3091H80.2984C82.4394 13.297 83.3745 12.6909 83.3745 11.2485ZM98.8289 0C93.9072 0 90.7819 3.35758 90.7819 8.00001C90.7819 12.6424 93.9072 15.9879 98.8289 16H99.1612C104.083 16 107.208 12.6424 107.208 8.00001C107.208 3.34546 104.083 0 99.1612 0H98.8289ZM104.391 8.00001C104.391 11.3091 102.373 13.4788 99.1612 13.4788H98.8289C95.6175 13.4788 93.5996 11.3091 93.5996 8.00001C93.5996 4.69091 95.6175 2.52121 98.8289 2.52121H99.1612C102.373 2.52121 104.391 4.69091 104.391 8.00001ZM111.749 8.00001C111.749 3.35758 114.874 0 119.796 0H120.128C125.05 0 128.175 3.34546 128.175 8.00001C128.175 12.6424 125.05 16 120.128 16H119.796C114.887 15.9879 111.749 12.6424 111.749 8.00001ZM120.141 13.4788C123.352 13.4788 125.37 11.3091 125.37 8.00001C125.37 4.69091 123.352 2.52121 120.141 2.52121H119.808C116.597 2.52121 114.579 4.69091 114.579 8.00001C114.579 11.3091 116.597 13.4788 119.808 13.4788H120.141ZM144.589 15.7091H147.468C147.64 15.7091 147.714 15.5758 147.591 15.4424C145.204 12.6667 142.571 10.097 139.803 7.78182C142.005 5.92728 144.392 3.5394 146.791 0.618183C146.841 0.545456 146.865 0.496971 146.865 0.448486C146.865 0.351516 146.804 0.29091 146.668 0.29091H143.937C143.801 0.29091 143.715 0.315153 143.605 0.460607C141.968 2.55758 139.95 4.65455 137.772 6.59394H136.456V0.509092C136.456 0.375759 136.37 0.29091 136.234 0.29091H134.019C133.884 0.29091 133.798 0.375759 133.798 0.509092V15.4909C133.798 15.6243 133.884 15.7091 134.019 15.7091H136.234C136.37 15.7091 136.456 15.6243 136.456 15.4909V9.12728H137.748C139.778 10.8485 142.177 13.1758 144.195 15.5273C144.318 15.6606 144.404 15.7091 144.589 15.7091Z" fill="white"/>
</svg>
