<svg width="79" height="27" viewBox="0 0 79 27" fill="none" xmlns="http://www.w3.org/2000/svg">
<g clip-path="url(#clip0)">
<path d="M33.6185 13.8463C33.6185 17.594 30.717 20.3556 27.1562 20.3556C23.5954 20.3556 20.6938 17.594 20.6938 13.8463C20.6938 10.0721 23.5954 7.33691 27.1562 7.33691C30.717 7.33691 33.6185 10.0721 33.6185 13.8463ZM30.7896 13.8463C30.7896 11.5043 29.1079 9.90191 27.1562 9.90191C25.2044 9.90191 23.5227 11.5043 23.5227 13.8463C23.5227 16.1647 25.2044 17.7906 27.1562 17.7906C29.1079 17.7906 30.7896 16.1618 30.7896 13.8463Z" fill="white"/>
<path d="M47.5599 13.8463C47.5599 17.594 44.6584 20.3556 41.0976 20.3556C37.5368 20.3556 34.6353 17.594 34.6353 13.8463C34.6353 10.0751 37.5368 7.33691 41.0976 7.33691C44.6584 7.33691 47.5599 10.0721 47.5599 13.8463ZM44.731 13.8463C44.731 11.5043 43.0493 9.90191 41.0976 9.90191C39.1458 9.90191 37.4642 11.5043 37.4642 13.8463C37.4642 16.1647 39.1458 17.7906 41.0976 17.7906C43.0493 17.7906 44.731 16.1618 44.731 13.8463Z" fill="white"/>
<path d="M60.9199 7.73017V19.4165C60.9199 24.2237 58.1142 26.187 54.7974 26.187C51.6751 26.187 49.796 24.0769 49.0873 22.3513L51.5502 21.3153C51.9888 22.3747 53.0634 23.625 54.7945 23.625C56.9176 23.625 58.2333 22.3014 58.2333 19.8097V18.8735H58.1345C57.5014 19.663 56.2815 20.3527 54.7422 20.3527C51.5212 20.3527 48.5703 17.5177 48.5703 13.8697C48.5703 10.1954 51.5212 7.33691 54.7422 7.33691C56.2786 7.33691 57.4985 8.02659 58.1345 8.79257H58.2333V7.73311H60.9199V7.73017ZM58.4337 13.8697C58.4337 11.5777 56.9205 9.90191 54.9949 9.90191C53.0431 9.90191 51.4079 11.5777 51.4079 13.8697C51.4079 16.1383 53.0431 17.7906 54.9949 17.7906C56.9205 17.7906 58.4337 16.1383 58.4337 13.8697Z" fill="white"/>
<path d="M65.349 0.880493V19.9566H62.5898V0.880493H65.349Z" fill="white"/>
<path d="M76.1013 15.9887L78.2971 17.4678C77.5884 18.5272 75.8806 20.3527 72.9297 20.3527C69.2702 20.3527 66.5371 17.4942 66.5371 13.8433C66.5371 9.97235 69.2934 7.33398 72.6131 7.33398C75.9561 7.33398 77.5913 10.0222 78.1257 11.475L78.4191 12.2145L69.8075 15.8184C70.4668 17.1244 71.492 17.7906 72.9297 17.7906C74.3703 17.7906 75.3694 17.0745 76.1013 15.9887ZM69.3428 13.6467L75.0993 11.2314C74.7827 10.4184 73.8301 9.85203 72.709 9.85203C71.2713 9.85203 69.2702 11.1345 69.3428 13.6467Z" fill="white"/>
<path d="M10.2496 12.015V9.25337H19.4595C19.5495 9.73467 19.596 10.304 19.596 10.9203C19.596 12.9923 19.0354 15.5543 17.2289 17.3798C15.4717 19.2287 13.2266 20.2148 10.2525 20.2148C4.73993 20.2148 0.104492 15.6776 0.104492 10.1074C0.104492 4.53717 4.73993 0 10.2525 0C13.3021 0 15.4746 1.20913 17.1069 2.78511L15.1784 4.7338C14.0079 3.62446 12.4221 2.76163 10.2496 2.76163C6.22409 2.76163 3.07571 6.03978 3.07571 10.1074C3.07571 14.175 6.22409 17.4532 10.2496 17.4532C12.8607 17.4532 14.3477 16.3937 15.3004 15.4311C16.0729 14.6504 16.5812 13.5352 16.7816 12.0121L10.2496 12.015Z" fill="white"/>
</g>
<defs>
<clipPath id="clip0">
<rect width="79" height="27" fill="white"/>
</clipPath>
</defs>
</svg>
