<svg width="106" height="16" viewBox="0 0 106 16" fill="none" xmlns="http://www.w3.org/2000/svg">
<path d="M8.21997 16C11.0217 16 13.2214 14.8423 14.7959 13.0825V7.15485H7.43271V10.026H11.508V11.8784C10.8828 12.4573 9.58611 13.0593 8.21997 13.0593C5.41823 13.0593 3.38061 10.9059 3.38061 7.98842C3.38061 5.07091 5.41823 2.91751 8.21997 2.91751C9.86396 2.91751 11.1838 3.8437 11.8784 4.93198L14.6107 3.45007C13.453 1.62084 11.4385 0 8.21997 0C3.70478 0 0 3.10275 0 7.98842C0 12.8509 3.70478 16 8.21997 16Z" fill="white"/>
<path d="M22.5233 15.9768C26.2281 15.9768 28.451 13.2909 28.451 10.0955C28.451 6.9233 26.2281 4.23734 22.5233 4.23734C18.8417 4.23734 16.6188 6.9233 16.6188 10.0955C16.6188 13.2909 18.8417 15.9768 22.5233 15.9768ZM22.5233 13.3603C20.6941 13.3603 19.6753 11.8553 19.6753 10.0955C19.6753 8.3589 20.6941 6.85383 22.5233 6.85383C24.3526 6.85383 25.3945 8.3589 25.3945 10.0955C25.3945 11.8553 24.3526 13.3603 22.5233 13.3603Z" fill="white"/>
<path d="M34.3837 15.9768C35.6109 15.9768 36.3982 15.6527 36.8381 15.259L36.2129 13.0362C36.0508 13.1983 35.634 13.3603 35.1941 13.3603C34.5458 13.3603 34.1753 12.8278 34.1753 12.1331V7.08538H36.4445V4.5152H34.1753V1.45876H31.2115V4.5152H29.3591V7.08538H31.2115V12.9204C31.2115 14.9117 32.3229 15.9768 34.3837 15.9768Z" fill="white"/>
<path d="M48.9687 15.699V7.75687C48.9687 5.58032 47.7878 4.23734 45.3334 4.23734C43.5042 4.23734 42.1149 5.11722 41.3971 5.97395V0.254703H38.4564V15.699H41.3971V8.17366C41.9065 7.50217 42.8095 6.85383 43.9441 6.85383C45.2176 6.85383 46.028 7.34009 46.028 8.89146V15.699H48.9687Z" fill="white"/>
<path d="M57.1442 15.9768C58.8808 15.9768 60.6406 15.4443 61.752 14.4255L60.4553 12.5268C59.7375 13.2214 58.4177 13.6382 57.4683 13.6382C55.5696 13.6382 54.4351 12.4573 54.2498 11.0449H62.5624V10.3965C62.5624 6.73806 60.2932 4.23734 56.9589 4.23734C53.5552 4.23734 51.1702 6.85383 51.1702 10.0955C51.1702 13.6845 53.7404 15.9768 57.1442 15.9768ZM59.7144 9.05355H54.2035C54.3424 7.94211 55.1297 6.57598 56.9589 6.57598C58.9039 6.57598 59.6449 7.98842 59.7144 9.05355Z" fill="white"/>
<path d="M67.6272 15.699V0.254703H64.6865V15.699H67.6272Z" fill="white"/>
<path d="M74.1552 15.699V7.08538H76.4244V4.5152H74.1552V3.91317C74.1552 2.8712 74.7341 2.33864 75.5445 2.33864C76.0771 2.33864 76.4707 2.50072 76.7717 2.80174L77.8831 1.06512C77.1653 0.301013 76.0307 0.0231545 74.9656 0.0231545C72.7196 0.0231545 71.1914 1.52822 71.1914 3.91317V4.5152H69.339V7.08538H71.1914V15.699H74.1552Z" fill="white"/>
<path d="M78.5378 15.9537C79.5566 15.9537 80.4133 15.097 80.4133 14.0781C80.4133 13.0593 79.5566 12.2026 78.5378 12.2026C77.519 12.2026 76.6623 13.0593 76.6623 14.0781C76.6623 15.097 77.519 15.9537 78.5378 15.9537Z" fill="white"/>
<path d="M88.0765 15.9768C90.3688 15.9768 91.7581 14.9812 92.4991 13.9392L90.5772 12.1563C90.0447 12.8972 89.2343 13.3603 88.2154 13.3603C86.4325 13.3603 85.1822 12.0405 85.1822 10.0955C85.1822 8.15051 86.4325 6.85383 88.2154 6.85383C89.2343 6.85383 90.0447 7.27062 90.5772 8.05789L92.4991 6.25181C91.7581 5.233 90.3688 4.23734 88.0765 4.23734C84.6264 4.23734 82.1489 6.6686 82.1489 10.0955C82.1489 13.5456 84.6264 15.9768 88.0765 15.9768Z" fill="white"/>
<path d="M99.6082 15.9768C103.313 15.9768 105.536 13.2909 105.536 10.0955C105.536 6.9233 103.313 4.23734 99.6082 4.23734C95.9265 4.23734 93.7037 6.9233 93.7037 10.0955C93.7037 13.2909 95.9265 15.9768 99.6082 15.9768ZM99.6082 13.3603C97.7789 13.3603 96.7601 11.8553 96.7601 10.0955C96.7601 8.3589 97.7789 6.85383 99.6082 6.85383C101.437 6.85383 102.479 8.3589 102.479 10.0955C102.479 11.8553 101.437 13.3603 99.6082 13.3603Z" fill="white"/>
</svg>
