<svg width="110" height="21" viewBox="0 0 110 21" fill="none" xmlns="http://www.w3.org/2000/svg">
<path d="M0.628 16H2.828V10.346H6.81C9.802 10.346 11.496 8.278 11.496 5.836C11.496 3.394 9.824 1.326 6.81 1.326H0.628V16ZM9.23 5.836C9.23 7.376 8.108 8.41 6.524 8.41H2.828V3.262H6.524C8.108 3.262 9.23 4.296 9.23 5.836ZM13.711 16H15.691V1.326H13.711V16ZM25.4017 16H27.3817V8.828C27.3817 6.122 25.4237 5.11 23.1137 5.11C21.3977 5.11 19.9457 5.682 18.7577 6.848L19.6157 8.212C20.5617 7.266 21.5957 6.804 22.8057 6.804C24.3237 6.804 25.4017 7.596 25.4017 8.916V10.676C24.5877 9.73 23.3557 9.268 21.9257 9.268C20.1437 9.268 18.2297 10.324 18.2297 12.744C18.2297 15.076 20.1657 16.264 21.9257 16.264C23.3557 16.264 24.5657 15.758 25.4017 14.834V16ZM25.4017 13.668C24.8077 14.46 23.7737 14.878 22.6737 14.878C21.2437 14.878 20.2317 14.02 20.2317 12.766C20.2317 11.512 21.2437 10.654 22.6737 10.654C23.7737 10.654 24.8077 11.072 25.4017 11.864V13.668ZM30.3347 18.376L30.0267 20.158C30.3347 20.246 30.9287 20.312 31.2587 20.312C32.7987 20.29 33.9647 19.696 34.6467 18.024L39.8827 5.374H37.7487L34.4267 13.712L31.1047 5.374H28.9927L33.3707 16.11L32.7547 17.518C32.4247 18.31 31.9407 18.552 31.2147 18.552C30.9507 18.552 30.5767 18.486 30.3347 18.376ZM41.2263 16H51.9843V12.81H45.0103V10.17H51.8303V6.958H45.0103V4.516H51.9843V1.326H41.2263V16ZM61.2873 16H64.6753V8.476C64.6753 6.518 63.5753 5.11 61.1553 5.11C59.3733 5.11 58.1193 5.924 57.4813 6.672V5.374H54.0933V16H57.4813V9.136C57.8773 8.652 58.5373 8.102 59.5493 8.102C60.6053 8.102 61.2873 8.564 61.2873 9.862V16ZM66.8483 18.728C68.2123 19.85 69.7303 20.312 71.5563 20.312C74.1963 20.312 77.6283 19.388 77.6283 15.054V5.374H74.2623V6.628C73.4043 5.572 72.3043 5.11 71.1163 5.11C68.4543 5.11 66.4303 6.958 66.4303 10.456C66.4303 14.042 68.5203 15.824 71.1163 15.824C72.3263 15.824 73.3823 15.318 74.2623 14.284V15.098C74.2623 17.078 72.6783 17.54 71.5563 17.54C70.3243 17.54 69.1363 17.188 68.3223 16.308L66.8483 18.728ZM74.2623 11.886C73.8443 12.458 72.9423 12.832 72.2383 12.832C70.8963 12.832 69.9063 12.018 69.9063 10.456C69.9063 8.916 70.8963 8.102 72.2383 8.102C72.9423 8.102 73.8443 8.476 74.2623 9.048V11.886ZM81.8049 4.032C82.8829 4.032 83.7409 3.174 83.7409 2.096C83.7409 1.018 82.8829 0.159999 81.8049 0.159999C80.7269 0.159999 79.8689 1.018 79.8689 2.096C79.8689 3.174 80.7269 4.032 81.8049 4.032ZM80.1109 16H83.4989V5.374H80.1109V16ZM93.1487 16H96.5367V8.476C96.5367 6.518 95.4367 5.11 93.0167 5.11C91.2347 5.11 89.9807 5.924 89.3427 6.672V5.374H85.9547V16H89.3427V9.136C89.7387 8.652 90.3987 8.102 91.4107 8.102C92.4667 8.102 93.1487 8.564 93.1487 9.862V16ZM98.2917 10.676C98.2917 14.13 100.822 16.264 104.1 16.264C105.728 16.264 107.488 15.802 108.544 14.856L107.114 12.744C106.52 13.272 105.464 13.646 104.518 13.646C102.934 13.646 102.01 12.744 101.812 11.754H109.38V11.028C109.38 7.42 107.092 5.11 103.946 5.11C100.624 5.11 98.2917 7.596 98.2917 10.676ZM103.946 7.728C105.508 7.728 106.058 8.806 106.146 9.554H101.768C101.9 8.784 102.472 7.728 103.946 7.728Z" fill="white"/>
</svg>
