<svg width="99" height="26" viewBox="0 0 99 26" fill="none" xmlns="http://www.w3.org/2000/svg">
<g clip-path="url(#clip0)">
<path d="M99 9.89341C98.7442 11.2872 98.4884 12.6809 98.2306 14.0747C98.1841 14.3214 98.1298 14.5661 98.0291 15.0594C97.4942 14.3116 97.0852 13.74 96.6666 13.1566C93.1375 15.0848 90.118 14.5582 88.5947 11.6767C87.2129 9.06146 88.1412 5.92549 90.6994 4.55717C93.2073 3.21626 96.1802 4.07366 97.4825 6.62041C96.9748 6.86315 96.469 7.10392 95.9786 7.33883C93.498 5.37738 91.8836 5.29516 90.494 7.03933C89.3796 8.43896 89.5444 10.5844 90.8525 11.71C92.3332 12.9844 94.1142 12.9178 95.2732 11.5573C94.622 11.1639 93.967 10.7684 93.1084 10.2497C95.2441 9.8386 97.1221 9.47646 99 9.11432C99 9.37271 99 9.63306 99 9.89341Z" fill="white"/>
<path d="M8.17251 25.6652C7.79654 25.7513 7.42444 25.8511 7.04652 25.9236C5.36432 26.2505 4.22864 25.5105 3.84491 23.8153C2.87202 19.542 1.91076 15.2667 0.945628 10.9915C0.652987 9.69363 0.358407 8.39579 0.077394 7.09402C-0.248194 5.58085 0.457246 4.37109 1.94371 3.97958C3.17823 3.65463 4.43213 3.39624 5.83526 3.07324C5.66471 3.47454 5.55812 3.72706 5.44959 3.97958C3.87204 7.59515 5.03679 11.3556 8.4419 13.3072C9.91867 14.1549 11.5175 14.7832 13.0447 15.5467C13.7327 15.8912 14.4188 16.2651 15.0331 16.7251C15.9789 17.4337 16.289 18.4419 15.9905 19.5851C15.7114 20.6578 14.8393 20.9965 13.8684 21.1413C11.8082 21.4486 9.91092 20.9358 8.11437 19.9394C7.83336 19.7847 7.55816 19.6183 7.17056 19.3932C6.51938 20.9436 5.88371 22.4509 5.2054 24.0639C6.23255 24.5415 7.2287 25.0035 8.2229 25.4655C8.2074 25.5321 8.18996 25.5986 8.17251 25.6652Z" fill="white"/>
<path d="M21.4654 22.5919C21.6418 21.6699 21.8007 20.9064 21.9344 20.1391C22.6244 16.1751 21.0856 13.2779 17.4247 11.6336C15.7502 10.8819 14.0583 10.1635 12.4071 9.36284C11.0854 8.72077 10.6726 7.98082 10.8974 6.96095C11.1455 5.82949 12.0583 5.12673 13.3703 5.01907C15.101 4.87617 16.6998 5.21874 18.132 6.24449C18.3355 6.3913 18.5681 6.49701 18.851 6.65753C19.4208 5.11695 19.9673 3.63509 20.5584 2.0397C19.258 1.57381 18.0332 1.13336 16.5448 0.598954C17.6456 0.360134 18.4693 0.115442 19.3123 0.0156079C20.4964 -0.123377 21.5352 0.739896 21.8453 2.0906C22.8201 6.33453 23.7717 10.5824 24.7329 14.8283C25.0275 16.1281 25.3299 17.424 25.6186 18.7257C26.0217 20.5306 25.2988 21.7169 23.5333 22.1475C22.8821 22.3041 22.2271 22.4294 21.4654 22.5919Z" fill="white"/>
<path d="M40.1966 13.7204C39.4621 13.7204 38.8923 13.7204 38.2295 13.7204C38.2295 10.4905 38.2295 7.26448 38.2295 3.89947C39.0687 3.89947 39.9001 3.84858 40.7179 3.93079C40.9544 3.95428 41.2547 4.32622 41.3516 4.60223C42.0319 6.52844 42.6656 8.47032 43.4001 10.6686C43.7781 9.50977 44.0823 8.58582 44.3827 7.6599C44.5416 7.1666 44.6909 6.66743 44.8478 6.17217C45.6482 3.61563 45.6482 3.61563 48.47 3.99148C48.47 7.20967 48.47 10.4396 48.47 13.7204C47.8615 13.7204 47.2936 13.7204 46.6173 13.7204C46.6173 11.5613 46.6173 9.40602 46.6173 7.25273C46.5436 7.23903 46.47 7.22728 46.3963 7.21358C45.7451 9.13197 45.0746 11.0445 44.4525 12.9727C44.2684 13.5443 44.0184 13.785 43.3788 13.7987C42.6889 13.8144 42.4369 13.5403 42.2412 12.9296C41.6482 11.0856 40.9912 9.26117 40.1985 7.44653C40.1966 9.49803 40.1966 11.5476 40.1966 13.7204Z" fill="white"/>
<path d="M81.0947 13.7242C80.3563 13.7242 79.7885 13.7242 79.1528 13.7242C79.1528 10.4649 79.1528 7.23492 79.1528 4.01282C81.0172 3.67612 81.0734 3.69961 81.9785 5.18147C83.0076 6.8669 84.0386 8.55234 85.2343 10.5099C85.2343 8.14713 85.2343 6.0741 85.2343 3.95018C85.9281 3.95018 86.4941 3.95018 87.1452 3.95018C87.1452 7.18794 87.1452 10.414 87.1452 13.6419C85.3894 14.0158 85.2402 13.9551 84.3525 12.5007C83.3312 10.827 82.3118 9.15135 81.0928 7.53638C81.0947 9.56439 81.0947 11.5904 81.0947 13.7242Z" fill="white"/>
<path d="M74.5479 13.7281C74.1971 13.7457 73.9433 13.7633 73.6894 13.7672C73.3386 13.7731 72.9878 13.7692 72.5363 13.7692C72.5363 12.3636 72.5363 11.0149 72.5363 9.5859C71.2029 9.5859 69.9684 9.5859 68.5866 9.5859C68.5866 10.9249 68.5866 12.2971 68.5866 13.7143C67.8152 13.7143 67.1912 13.7143 66.5071 13.7143C66.5071 10.4531 66.5071 7.24665 66.5071 3.96777C67.1563 3.96777 67.7823 3.96777 68.5284 3.96777C68.5284 5.16187 68.5284 6.3501 68.5284 7.61858C69.8754 7.61858 71.1079 7.61858 72.4413 7.61858C72.4413 6.42644 72.4413 5.24017 72.4413 3.97365C73.1913 3.97365 73.8425 3.97365 74.5479 3.97365C74.5479 7.2212 74.5479 10.4257 74.5479 13.7281Z" fill="white"/>
<path d="M65.4374 6.83361C64.9975 6.83361 64.5421 6.89429 64.1157 6.81208C63.8386 6.75922 63.5013 6.5576 63.3637 6.31878C62.854 5.44572 61.5187 5.02093 60.6873 5.60428C60.4179 5.79416 60.1757 6.22873 60.1776 6.54781C60.1796 6.8062 60.5245 7.19184 60.7978 7.29167C61.7339 7.63228 62.7145 7.8437 63.6622 8.15299C65.3483 8.70501 66.1274 9.99895 65.7339 11.5806C65.6487 11.9193 65.4994 12.2638 65.2979 12.5477C63.8211 14.6442 59.352 14.4034 58.1408 12.1483C57.8946 11.6903 57.8307 11.1304 57.6582 10.5294C58.4334 10.5294 59.0381 10.5294 59.6447 10.5294C60.292 12.0504 61.199 12.6123 62.6254 12.1894C63.0692 12.0583 63.6002 11.5846 63.7106 11.1637C63.7843 10.8818 63.2668 10.2515 62.8792 10.0714C62.0691 9.69749 61.1641 9.53697 60.3075 9.25704C58.7202 8.73634 57.9508 7.77714 58.0516 6.493C58.1621 5.06204 59.1737 3.98735 60.7939 3.83858C61.728 3.75245 62.7281 3.81705 63.6273 4.06957C64.8676 4.41997 65.4452 5.4281 65.4374 6.83361Z" fill="white"/>
<path d="M29.5022 10.5178C30.1669 10.5178 30.7735 10.5178 31.3743 10.5178C31.9577 12.0936 33.2058 12.7357 34.6205 12.1053C34.981 11.9448 35.4151 11.5122 35.4461 11.1716C35.4752 10.8447 35.0973 10.3005 34.7678 10.1556C33.8899 9.76804 32.9344 9.56837 32.0255 9.24929C31.165 8.94783 30.3394 8.56807 29.9576 7.63236C29.4576 6.4089 29.9363 4.94271 31.1611 4.27714C32.7135 3.43345 34.3259 3.48238 35.8725 4.31042C36.8144 4.81351 37.1593 5.58869 37.1341 6.76126C37.0198 6.78279 36.8977 6.82586 36.7737 6.82782C36.293 6.83565 35.8105 6.83173 35.2639 6.83173C34.9771 5.60631 34.1011 5.20697 33.012 5.43601C32.5837 5.52605 32.2464 6.05655 31.8666 6.38541C32.1515 6.71819 32.3743 7.2017 32.7329 7.35244C33.5585 7.69892 34.4577 7.86335 35.3163 8.13741C36.8396 8.62288 37.5547 9.54292 37.5353 10.9445C37.5159 12.2756 36.6942 13.4639 35.2484 13.7027C34.0837 13.8945 32.8085 13.8612 31.6592 13.5931C30.2076 13.2525 29.5778 12.1719 29.5022 10.5178Z" fill="white"/>
<path d="M58.098 13.7694C57.7996 13.7694 57.6406 13.7674 57.4817 13.7694C55.9895 13.7889 55.9546 13.7987 55.5146 12.3638C55.3305 11.7629 55.0611 11.4888 54.4371 11.5613C54.1193 11.5984 53.7937 11.5671 53.472 11.5671C51.7103 11.5671 51.7278 11.575 51.0281 13.1899C50.9196 13.4405 50.5766 13.6911 50.3033 13.7439C49.8421 13.834 49.3498 13.7694 48.749 13.7694C48.9506 13.1899 49.1095 12.7045 49.2859 12.2288C50.22 9.70747 51.1967 7.20182 52.0766 4.66289C52.3344 3.91903 52.7665 3.85443 53.3848 3.89162C53.97 3.92686 54.5418 3.75264 54.8363 4.60221C55.8189 7.45043 56.8945 10.2634 57.9294 13.092C57.9953 13.2702 58.0224 13.462 58.098 13.7694ZM54.6503 9.90126C54.2472 8.69738 53.8809 7.60703 53.4429 6.30331C52.9875 7.62269 52.6076 8.72674 52.2026 9.90126C53.065 9.90126 53.7646 9.90126 54.6503 9.90126Z" fill="white"/>
<path d="M77.8404 13.7183C77.1679 13.7183 76.54 13.7183 75.8462 13.7183C75.8462 10.459 75.8462 7.23103 75.8462 3.94824C76.5167 3.94824 77.1447 3.94824 77.8404 3.94824C77.8404 7.18796 77.8404 10.3925 77.8404 13.7183Z" fill="white"/>
<path d="M33.5238 21.4662C34.1634 19.8395 34.7196 18.3635 35.3378 16.913C35.4599 16.6252 35.8223 16.4392 36.0742 16.2063C36.1847 16.5019 36.3863 16.7955 36.394 17.095C36.427 18.524 36.4153 19.955 36.4037 21.3859C36.4018 21.6659 36.3281 21.9438 36.2874 22.2218C36.1653 22.2159 36.0432 22.212 35.9211 22.2062C35.9211 20.7008 35.9211 19.1955 35.9211 17.6901C35.8184 17.6745 35.7157 17.6607 35.613 17.6451C35.0936 18.9488 34.5858 20.2545 34.049 21.5504C33.9482 21.7931 33.737 21.9908 33.5761 22.2081C33.3843 21.9889 33.1207 21.799 33.0141 21.5425C32.456 20.2173 31.9385 18.8764 31.4056 17.5413C31.3125 17.5531 31.2214 17.5629 31.1284 17.5746C31.1284 19.1172 31.1284 20.6577 31.1284 22.2003C31.0179 22.2081 30.9075 22.2179 30.799 22.2257C30.7427 22.0182 30.64 21.8107 30.6381 21.6013C30.6245 20.0411 30.6168 18.479 30.6439 16.9188C30.6478 16.68 30.8435 16.4471 30.9501 16.2102C31.1982 16.4001 31.5664 16.5391 31.673 16.7896C32.299 18.2813 32.8688 19.7964 33.5238 21.4662Z" fill="white"/>
<path d="M85.9708 21.1316C86.0754 19.3737 86.1665 17.8214 86.2673 16.2691C86.2673 16.2554 86.3816 16.2495 86.5464 16.224C86.5464 18.1875 86.5464 20.1372 86.5464 22.359C86.1781 22.0771 85.8351 21.9185 85.6452 21.6503C84.6568 20.2585 83.7091 18.8393 82.5463 17.4671C82.5463 18.2912 82.5657 19.1153 82.5405 19.9394C82.5172 20.7029 82.6626 21.5055 82.4261 22.2356C82.304 22.22 82.1839 22.2063 82.0618 22.1906C82.0618 20.237 82.0618 18.2834 82.0618 16.042C82.4436 16.3474 82.7808 16.5157 82.9746 16.7878C83.961 18.1738 84.9087 19.5832 85.9708 21.1316Z" fill="white"/>
<path d="M54.3615 19.6537C53.7414 19.6537 53.1096 19.6537 52.4797 19.6537C52.4739 19.5284 52.47 19.4031 52.4642 19.2778C53.2375 19.2328 54.0108 19.1858 54.8693 19.1349C54.8693 20.2155 54.8693 21.1825 54.8693 22.1476C54.7995 22.1652 54.7298 22.1848 54.66 22.2024C54.5864 21.9381 54.5127 21.6738 54.4391 21.4096C53.0514 22.5078 51.8848 22.6526 50.784 21.8598C49.7336 21.1022 49.3188 19.452 49.8033 17.9604C50.1929 16.7604 51.158 16.087 52.4468 16.1164C53.7511 16.1458 54.4333 16.6841 54.8848 18.2697C54.5205 17.9682 54.284 17.8625 54.1891 17.6805C53.7336 16.8172 52.9856 16.5275 52.0979 16.6058C51.2064 16.6841 50.6657 17.2537 50.3653 18.0876C49.8615 19.4794 50.3692 21.161 51.4758 21.6641C52.7239 22.2317 54.5844 21.484 54.3615 19.6537Z" fill="white"/>
<path d="M95.2227 19.3012C94.1626 19.3012 93.1045 19.3012 91.9785 19.3012C91.9785 20.1742 91.9785 20.875 91.9785 21.7794C93.1432 21.7794 94.3157 21.7794 95.4882 21.7794C95.4863 21.8871 95.4863 21.9947 95.4844 22.1024C94.1491 22.1024 92.8138 22.1024 91.4106 22.1024C91.4106 20.2153 91.4106 18.2793 91.4106 16.3159C92.7828 16.3159 94.1181 16.3159 95.4514 16.3159C95.4553 16.4138 95.4592 16.5097 95.463 16.6076C94.3254 16.6076 93.1878 16.6076 91.9804 16.6076C91.9804 17.4395 91.9804 18.1012 91.9804 18.8999C93.0696 18.8999 94.1355 18.8999 95.2014 18.8999C95.2092 19.033 95.2169 19.168 95.2227 19.3012Z" fill="white"/>
<path d="M63.8828 22.3022C63.6948 21.9753 63.4274 21.6699 63.3324 21.3175C63.1289 20.5698 62.7277 20.2311 61.9525 20.3721C61.7355 20.4112 61.499 20.4093 61.28 20.3721C60.4816 20.2409 60.0397 20.5639 59.8323 21.3567C59.7432 21.6973 59.4525 21.9851 59.2548 22.2963C59.1579 22.2317 59.0591 22.1691 58.9622 22.1045C59.6967 20.2566 60.4234 18.4047 61.1793 16.5646C61.2451 16.4041 61.5145 16.2182 61.6696 16.2358C61.8304 16.2534 62.0262 16.4785 62.0979 16.6586C62.8169 18.4556 63.5126 20.2624 64.2161 22.0673C64.1037 22.1475 63.9933 22.2239 63.8828 22.3022ZM61.594 16.7956C61.1618 17.9291 60.8188 18.8295 60.4467 19.8102C61.2374 19.8102 61.9196 19.8102 62.72 19.8102C62.3498 18.8236 62.0145 17.9232 61.594 16.7956Z" fill="white"/>
<path d="M45.4563 22.3041C45.278 22.034 45.0047 21.7834 44.9388 21.4878C44.7295 20.5443 44.1733 20.2252 43.2741 20.376C43.1811 20.3916 43.0803 20.3916 42.9853 20.376C42.0977 20.237 41.5163 20.5149 41.3244 21.4859C41.2682 21.7756 40.9911 22.0223 40.8167 22.2885C40.714 22.2239 40.6093 22.1612 40.5066 22.0966C41.2566 20.2194 41.9601 18.3206 42.7838 16.4746C43.0415 15.8971 43.4737 16.1751 43.6675 16.6703C44.3729 18.4772 45.0687 20.2879 45.7683 22.0986C45.6637 22.1691 45.5609 22.2356 45.4563 22.3041ZM43.1404 16.7917C42.6907 17.9682 42.3477 18.8667 41.9911 19.8024C42.8283 19.8024 43.5086 19.8024 44.2644 19.8024C43.8981 18.8256 43.5648 17.931 43.1404 16.7917Z" fill="white"/>
<path d="M68.3945 21.805C69.8596 21.805 71.0457 21.8031 72.2337 21.8109C72.2725 21.8109 72.3112 21.901 72.4643 22.0869C70.848 22.0869 69.3402 22.0869 67.5437 22.0869C68.9274 20.2723 70.2221 18.5771 71.6775 16.6685C70.3345 16.6685 69.1968 16.6685 68.0592 16.6685C68.0592 16.5608 68.0612 16.4512 68.0612 16.3435C69.4488 16.3435 70.8364 16.3435 72.5186 16.3435C71.2725 18.2306 69.8015 19.826 68.3945 21.805Z" fill="white"/>
<path d="M76.7822 22.1807C76.7822 20.2017 76.7822 18.2206 76.7822 16.0791C77.3171 16.7858 77.3734 21.3762 76.7822 22.1807Z" fill="white"/>
</g>
<defs>
<clipPath id="clip0">
<rect width="99" height="26" fill="white"/>
</clipPath>
</defs>
</svg>
