<svg width="88" height="28" viewBox="0 0 88 28" fill="none" xmlns="http://www.w3.org/2000/svg">
<path d="M4.2474 10.5726C7.04256 10.5726 8.27618 9.10164 8.27618 7.40083C8.27618 3.60082 2.21739 4.78066 2.21739 2.86533C2.21739 2.11452 2.90447 1.59355 3.96632 1.59355C5.0594 1.59355 6.16809 1.9613 6.99571 2.7734L8.02633 1.44033C7.07379 0.520969 5.74648 0 4.13809 0C1.84262 0 0.343539 1.30242 0.343539 3.00323C0.343539 6.75728 6.40232 5.42421 6.40232 7.56938C6.40232 8.25889 5.82455 8.97906 4.32547 8.97906C2.87324 8.97906 1.73331 8.30486 1.03062 7.55405L0 8.94841C0.936926 9.89841 2.3267 10.5726 4.2474 10.5726Z" fill="white"/>
<path d="M14.1005 10.3887V1.74678H17.2548V0.168549H9.11916V1.74678H12.2735V10.3887H14.1005Z" fill="white"/>
<path d="M23.2786 10.5726C26.386 10.5726 28.6034 8.33551 28.6034 5.2863C28.6034 2.2371 26.386 0 23.2786 0C20.1555 0 17.9537 2.2371 17.9537 5.2863C17.9537 8.33551 20.1555 10.5726 23.2786 10.5726ZM23.2786 8.97906C21.1705 8.97906 19.8276 7.3855 19.8276 5.2863C19.8276 3.17178 21.1705 1.59355 23.2786 1.59355C25.371 1.59355 26.7296 3.17178 26.7296 5.2863C26.7296 7.3855 25.371 8.97906 23.2786 8.97906Z" fill="white"/>
<path d="M35.3594 10.5726C37.4519 10.5726 38.748 9.4847 39.5444 8.25889L37.9828 7.49276C37.4831 8.33551 36.4681 8.97906 35.3594 8.97906C33.2982 8.97906 31.7679 7.41615 31.7679 5.2863C31.7679 3.12581 33.2982 1.59355 35.3594 1.59355C36.4681 1.59355 37.4831 2.22178 37.9828 3.07985L39.5287 2.28307C38.7636 1.05726 37.4519 0 35.3594 0C32.2832 0 29.894 2.12984 29.894 5.2863C29.894 8.42744 32.2832 10.5726 35.3594 10.5726Z" fill="white"/>
<path d="M49.4858 10.3887L44.9261 4.97985L49.1579 0.168549H46.8936L42.818 5.02582V0.168549H40.991V10.3887H42.818V7.12502L43.7393 6.06776L47.2215 10.3887H49.4858Z" fill="white"/>
<path d="M60.6054 10.3887L63.588 0.168549H61.5423L59.5123 8.02905L57.3574 0.168549H55.9052L53.7502 8.02905L51.7202 0.168549H49.6902L52.6572 10.3887H54.6091L56.6391 2.83469L58.6535 10.3887H60.6054Z" fill="white"/>
<path d="M71.9316 10.3887V8.81051H66.6224V5.9605H71.8223V4.38227H66.6224V1.74678H71.9316V0.168549H64.7954V10.3887H71.9316Z" fill="white"/>
<path d="M80.1008 10.3887V8.81051H75.5099V0.168549H73.6829V10.3887H80.1008Z" fill="white"/>
<path d="M88 10.3887V8.81051H83.4091V0.168549H81.5821V10.3887H88Z" fill="white"/>
<path d="M12.5431 27.9847C15.3383 27.9847 16.5719 26.5137 16.5719 24.8129C16.5719 21.0129 10.5131 22.1927 10.5131 20.2774C10.5131 19.5266 11.2002 19.0056 12.262 19.0056C13.3551 19.0056 14.4638 19.3734 15.2914 20.1855L16.322 18.8524C15.3695 17.933 14.0422 17.4121 12.4338 17.4121C10.1383 17.4121 8.63923 18.7145 8.63923 20.4153C8.63923 24.1693 14.698 22.8363 14.698 24.9814C14.698 25.671 14.1203 26.3911 12.6212 26.3911C11.1689 26.3911 10.029 25.7169 9.32631 24.9661L8.2957 26.3605C9.23262 27.3105 10.6224 27.9847 12.5431 27.9847Z" fill="white"/>
<path d="M22.3962 27.8008V19.1588H25.5505V17.5806H17.4149V19.1588H20.5692V27.8008H22.3962Z" fill="white"/>
<path d="M35.1719 27.8008L32.611 23.7863C33.8758 23.5871 35.0938 22.5911 35.0938 20.783C35.0938 18.883 33.7353 17.5806 31.6741 17.5806H27.0987V27.8008H28.9257V23.9855H30.7528L33.0482 27.8008H35.1719ZM31.4398 22.4072H28.9257V19.1588H31.4398C32.4704 19.1588 33.22 19.7871 33.22 20.7677C33.22 21.7637 32.4704 22.4072 31.4398 22.4072Z" fill="white"/>
<path d="M46.3043 27.8008L42.213 17.5806H39.9332L35.8419 27.8008H37.9188L38.6839 25.8242H43.4622L44.2274 27.8008H46.3043ZM42.9469 24.246H39.1992L41.0731 19.3734L42.9469 24.246Z" fill="white"/>
<path d="M50.7144 27.8008V19.1588H53.8687V17.5806H45.7331V19.1588H48.8874V27.8008H50.7144Z" fill="white"/>
<path d="M62.5532 27.8008V26.2226H57.244V23.3726H62.4439V21.7943H57.244V19.1588H62.5532V17.5806H55.417V27.8008H62.5532Z" fill="white"/>
<path d="M69.4419 28C71.2377 28 72.7056 27.2492 73.7206 26.1306V22.3153H68.7861V23.8935H71.9092V25.4718C71.4407 25.9161 70.5038 26.3911 69.4419 26.3911C67.3807 26.3911 65.8504 24.8282 65.8504 22.6984C65.8504 20.5379 67.3807 19.0056 69.4419 19.0056C70.5975 19.0056 71.5812 19.6032 72.1434 20.3693L73.6269 19.5266C72.7992 18.3621 71.4719 17.4121 69.4419 17.4121C66.4125 17.4121 63.9765 19.4806 63.9765 22.6984C63.9765 25.9008 66.4125 28 69.4419 28Z" fill="white"/>
<path d="M80.1877 27.8008V23.5564L84.2164 17.5806H82.124L79.2663 21.9476L76.4087 17.5806H74.3163L78.3606 23.5564V27.8008H80.1877Z" fill="white"/>
</svg>
