<svg width="220" height="37" viewBox="0 0 220 37" fill="none" xmlns="http://www.w3.org/2000/svg">
<path d="M22.8029 35.9078L19.2835 22.9976L15.764 35.9078H8.35861L0 10.6179H7.22213L12.0247 27.6665L16.1673 10.6179H22.3263L26.4689 27.6665L31.3081 10.6179H38.5302L30.2083 35.9078H22.8029ZM51.4714 10.1227C58.9135 10.0874 62.6529 14.2964 62.6529 20.4509V26.1455C62.6529 30.9913 59.8667 36.403 51.4714 36.403C43.0762 36.403 40.18 31.0974 40.18 26.1455V20.4509C40.1433 14.155 43.9193 10.1581 51.4714 10.1227C51.4714 10.1227 51.4714 10.1581 51.4714 10.1227ZM47.0722 20.4509V26.1455C47.0722 28.8691 48.2453 31.1681 51.4714 31.1681C54.6609 31.1681 55.724 28.9044 55.724 26.1455V20.4509C55.724 17.1968 54.2943 15.3575 51.4714 15.3575C48.3553 15.3575 47.0722 16.9846 47.0722 20.4509ZM79.2235 10.1227C80.14 10.1227 81.0198 10.1935 81.8997 10.4057L81.8264 15.6405C80.0667 15.2868 78.6736 15.11 77.6471 15.3575C75.0808 15.6405 73.761 17.3029 73.761 20.4863V35.9078H66.9055V10.1581H72.1113L72.4046 12.9877C74.201 10.7948 76.3273 10.1227 79.2235 10.1227ZM100.34 10.2642H108.442L98.8002 21.0522L110.238 35.9431H102.613L94.8775 25.5089L92.4579 27.8079V35.9431H85.6024V0.537333H92.4579V18.8946L100.34 10.2642ZM123.619 0.00677684C124.719 -0.0285936 125.782 0.077522 126.846 0.254374V5.38309C125.892 5.20624 124.939 5.17086 124.023 5.31234C121.933 5.59531 120.87 6.97476 120.87 9.62754V10.6179H126.442V15.499H120.87V35.9078H114.014V8.77864C114.014 2.23511 118.964 0.112888 123.619 0.00677684ZM142.903 10.1227C143.819 10.1227 144.699 10.1935 145.579 10.4057L145.506 15.6405C143.746 15.2868 142.353 15.11 141.326 15.3575C138.76 15.6405 137.44 17.3029 137.44 20.4863V35.9078H130.585V10.1581H135.791L136.084 12.9877C137.88 10.7948 140.043 10.1227 142.903 10.1227ZM159.583 10.1227C166.989 10.0874 170.728 14.3318 170.728 20.4509V26.1455C170.728 30.9913 167.942 36.403 159.547 36.403C151.151 36.403 148.255 31.0974 148.255 26.1455V20.4509C148.255 14.155 152.031 10.1581 159.583 10.1227C159.583 10.1227 159.583 10.1581 159.583 10.1227ZM155.184 20.4509V26.1455C155.184 28.8691 156.357 31.1681 159.583 31.1681C162.773 31.1681 163.836 28.9044 163.836 26.1455V20.4509C163.836 17.1968 162.443 15.3575 159.583 15.3575C156.467 15.3575 155.184 16.9846 155.184 20.4509ZM187.299 10.1227C192.431 10.0874 197.49 12.7048 197.49 19.1422V35.9078H190.562V19.602C190.562 16.5248 189.388 15.11 186.236 15.11C184.769 15.11 183.303 15.3575 181.946 15.8527V35.9078H175.017V10.5118H180.297L180.48 11.8559C182.57 10.724 184.916 10.1227 187.299 10.1227ZM215.307 10.6887V15.8881H209.698V25.8979C209.698 28.5861 210.395 30.4254 212.778 31.0267C213.914 31.2743 215.087 31.3096 216.224 31.1681V36.2615C214.904 36.4383 213.584 36.4737 212.301 36.3676C207.462 35.9078 202.843 33.4318 202.843 27.0652V4.60493H209.698V10.724L215.307 10.6887ZM217.837 8.21272C216.664 8.21272 215.711 7.29308 215.711 6.12586C215.711 4.95863 216.664 4.07438 217.874 4.07438C219.047 4.07438 220 4.99401 220 6.16123C220 7.32846 219.01 8.21272 217.837 8.21272ZM217.837 4.32198C216.811 4.32198 215.967 5.10012 215.967 6.0905C215.967 6.58568 216.151 7.04549 216.517 7.36382C217.25 8.07123 218.424 8.07123 219.12 7.36382C219.487 7.01012 219.67 6.58568 219.67 6.0905C219.67 5.1355 218.864 4.35735 217.837 4.32198ZM218.424 7.29309L217.8 6.37346H217.36V7.29309H217.03V4.92327H218.057C218.46 4.92327 218.827 5.20623 218.827 5.63067V5.66605C218.827 6.01975 218.57 6.30272 218.204 6.37346L218.864 7.32846L218.424 7.29309ZM218.02 5.20624H217.36V6.0905H218.057C218.314 6.0905 218.497 5.87827 218.497 5.66605C218.497 5.45382 218.277 5.20624 218.02 5.20624Z" fill="#F8822F"/>
</svg>
