<svg width="345" height="337" viewBox="0 0 345 337" fill="none" xmlns="http://www.w3.org/2000/svg">
<g clip-path="url(#clip0)">
<path d="M35.9433 1.5282C63.0941 1.5282 69.9232 12.6705 69.9232 23.799V25.6929C69.9232 36.3928 64.0341 48.6687 35.9986 48.5996H2.53027V1.5282H35.9433ZM33.8559 36.144C49.4911 36.144 51.2606 29.2457 51.2606 25.1261V24.7528C51.2606 20.6332 49.5464 13.8732 33.8559 13.8732H20.5017V36.144H33.8559Z" fill="white"/>
<path d="M125.911 1.5282V13.0438H91.5581V18.9329H125.22V30.3931H91.5581V36.849H126.423V48.6134H73.8354V1.5282H125.911Z" fill="white"/>
<path d="M62.3889 70.8703V71.3818H42.8415C42.6479 69.6676 41.6388 66.3774 31.4503 66.3774H30.8144C21.3863 66.3774 20.4324 68.0225 20.4324 69.8611V69.9303C20.4324 71.8242 21.8287 73.414 30.69 73.5384L39.1642 73.7181C57.0804 74.1605 64.034 78.4598 64.034 87.8879V88.7726C64.034 96.7492 59.6102 104.781 34.8649 104.781H29.1002C3.0969 104.795 0.373535 94.2194 0.373535 88.0814V87.4455H20.1145C20.308 89.9753 21.6351 94.095 31.8789 94.095H32.4457C42.5097 94.095 43.9612 91.9384 43.9612 89.6712V89.6021C43.9612 87.2658 42.8276 85.6207 32.888 85.3581L24.1512 85.1092C5.94469 84.5424 1.06474 78.2801 1.06474 70.9394V70.3726C1.06474 62.714 6.24882 56.0093 28.1463 56.0093H33.7728C57.0804 55.9955 62.3889 63.4052 62.3889 70.8703Z" fill="white"/>
<path d="M67.6973 103.91V56.825H85.5996V103.91H67.6973Z" fill="white"/>
<path d="M89.7192 81.0589V79.2894C89.7192 69.1701 95.3457 55.9403 123.063 55.9403H125.538C154.334 55.9403 158.384 67.525 158.578 74.1053V74.1744H139.846C139.459 73.0408 137.883 68.23 124.598 68.23C111.935 68.23 108.34 73.6768 108.34 79.87V80.5612C108.34 86.5747 112.778 92.4638 124.473 92.4638C136.625 92.4638 140.551 88.0954 140.551 86.5747H124.017V77.3955H158.882V103.91H147.546C147.297 102.334 146.219 99.0994 145.334 97.3991C143.495 99.4174 137.62 104.809 122.925 104.809H121.473C95.7328 104.795 89.7192 90.9985 89.7192 81.0589Z" fill="white"/>
<path d="M184.373 56.825L211.718 83.5886V56.825H229.565V103.91H211.593L182.106 75.3632V103.91H164.259V56.825H184.373Z" fill="white"/>
<path d="M20.1838 128.821H1.82527V128.379C1.82527 122.435 4.16156 111.223 29.7916 111.223H32.515C56.2511 111.223 60.8684 118.121 60.8684 125.835V126.084C60.8684 133.867 56.3755 137.669 39.4133 140.323C36.2475 140.835 32.1417 141.526 29.2939 142.037C18.4696 143.876 16.7001 145.963 16.7001 147.346H44.9291V141.775H61.5734V159.179H1.06494V153.677C1.06494 147.346 1.82527 136.342 26.3079 131.144C29.2801 130.508 32.9574 129.748 35.4181 129.305C41.3625 128.102 41.9984 127.218 41.9984 125.766C41.9984 124.121 40.6713 122.67 31.6855 122.67C20.9441 122.683 20.3082 126.927 20.1838 128.821Z" fill="white"/>
<path d="M62.3889 181.464V181.975H42.8415C42.6479 180.261 41.6388 176.971 31.4503 176.971H30.8144C21.3863 176.971 20.4324 178.616 20.4324 180.455V180.524C20.4324 182.418 21.8287 184.008 30.69 184.132L39.1642 184.326C57.0804 184.768 64.034 189.067 64.034 198.495V199.38C64.034 207.357 59.6102 215.388 34.8649 215.388H29.1002C3.0969 215.388 0.373535 204.813 0.373535 198.675V198.039H20.1145C20.308 200.569 21.6351 204.689 31.8789 204.689H32.4457C42.5097 204.689 43.9612 202.532 43.9612 200.265V200.196C43.9612 197.859 42.8276 196.214 32.888 195.952L24.1512 195.703C5.94469 195.136 1.06474 188.874 1.06474 181.533V180.966C1.06474 173.308 6.24882 166.603 28.1463 166.603H33.7728C57.0804 166.589 62.3889 173.999 62.3889 181.464Z" fill="white"/>
<path d="M134.648 194.943V195.952C134.648 202.159 130.279 215.375 101.871 215.375H99.3961C70.4067 215.375 66.1074 200.624 66.1074 191.708V189.869C66.1074 180.883 70.0335 166.52 99.3961 166.52H101.871C130.542 166.52 134.592 179.556 134.648 185.57V186.399H115.985C115.667 185.196 114.091 179.183 100.474 179.183C87.5073 179.183 84.7148 184.948 84.7148 190.187V190.947C84.7148 196.007 87.8805 202.656 100.543 202.656C114.395 202.656 115.792 196.007 116.04 194.943H134.648Z" fill="white"/>
<path d="M138.56 214.504V167.418H156.462V214.504H138.56Z" fill="white"/>
<path d="M214.248 167.418V178.934H179.881V184.823H213.543V196.283H179.881V202.739H214.745V214.504H162.158V167.418H214.248Z" fill="white"/>
<path d="M22.6445 222.715L49.9887 249.479V222.715H67.8358V269.801H49.8643L20.3773 241.254V269.801H2.53027V222.715H22.6445Z" fill="white"/>
<path d="M140.468 250.239V251.248C140.468 257.456 136.099 270.671 107.69 270.671H105.216C76.2266 270.671 71.9272 255.921 71.9272 247.004V245.166C71.9272 236.18 75.8533 221.817 105.216 221.817H107.69C136.362 221.817 140.412 234.853 140.468 240.867V241.696H121.805C121.487 240.493 119.911 234.48 106.294 234.48C93.3271 234.48 90.5346 240.244 90.5346 245.484V246.244C90.5346 251.304 93.7004 257.953 106.363 257.953C120.215 257.953 121.611 251.304 121.86 250.239H140.468Z" fill="white"/>
<path d="M196.47 222.715V234.231H162.103V240.12H195.765V251.58H162.103V258.036H196.968V269.801H144.38V222.715H196.47Z" fill="white"/>
<path d="M232.785 337L232.619 269.953H214.938V251.981H250.549L250.646 292.583L288.649 253.184H326.735V18.4491L144 18.8085L143.972 0.837029L344.706 0.449951V271.155H296.28L232.785 337Z" fill="white"/>
</g>
<defs>
<clipPath id="clip0">
<rect width="344.333" height="336.55" fill="white" transform="translate(0.373535 0.449951)"/>
</clipPath>
</defs>
</svg>
